<svg viewBox="0 0 32 32"  xmlns="http://www.w3.org/2000/svg" width="32" height="32"><path fill="#fff" d="M30.375 4.063H1.625C.687 4.063 0 4.751 0 5.626v22.313c0 .875.688 1.625 1.625 1.625h28.75c.938 0 1.625-.75 1.625-1.625V5.626c0-.875-.688-1.563-1.625-1.563zM8 7.25c1.75 0 3.188 1.438 3.188 3.188S9.75 13.626 8 13.626c-1.75 0-3.188-1.438-3.188-3.188S6.25 7.25 8 7.25zm20.813 17.5c0 .875-.75 1.625-1.625 1.625H4.813c-1.313 0-2.063-1.438-1.313-2.5L8 17.5c.563-.813 1.75-.938 2.438-.25l2.938 3.875c.688.688 1.875.563 2.438-.188l5.25-9.875c.688-.875 2-.875 2.625.063l4.813 8.438c.188.313.313.625.313.938z"/></svg>
