<svg xmlns="http://www.w3.org/2000/svg" viewBox="0 0 16 12.2"><path d="M3.4 0L0 12h2.4L3 9.7h3.3l.6 2.3h2.4L5.9 0H3.4zm.1 7.5l1.1-4.3 1.1 4.3H3.5zm12.2 3.3c-.1-.4-.1-.9-.1-1.3V6.1c0-1-.3-1.8-.9-2.4-.6-.5-1.4-.8-2.3-.8-1 0-1.8.3-2.5.8-.6.6-.9 1.3-.8 2.1v.1h2.3c0-.3.1-.6.2-.7.1-.2.3-.2.6-.2s.6.1.7.3c.2.2.2.5.2.9v.6h-.9c-1.2 0-2 .2-2.6.7s-.9 1.2-.9 2 .2 1.5.7 2c.5.5 1.1.7 1.8.7.5 0 .9-.1 1.2-.3s.6-.5.8-.9c0 .2.1.4.1.5.1.2.1.3.2.5h2.4c0-.4-.1-.8-.2-1.2zm-2.5-1.2c-.2.2-.3.3-.5.4-.2.1-.4.2-.7.2-.2 0-.4-.1-.6-.2-.1-.2-.2-.4-.2-.6 0-.3.1-.6.3-.8.2-.2.4-.3.8-.3h.9v1.3z" fill="#fff"/></svg>
