<svg viewBox="0 0 14 16"  width="14" height="16" xmlns="http://www.w3.org/2000/svg"><path d="M4 8.735L7 13l2.988-4.274.003 7.308-5.938-2.063L4 9.501V14l-4 2L.005 4l1.554-.389a5.415 5.415 0 0 0 1.074 3.082H2.61L4 8.69v.046zm8.455-5.28c0-.023-.004-.045-.004-.068L14 3l-.005 11L10 16V8.69l1.39-1.997h-.023a5.408 5.408 0 0 0 1.088-3.238zM3.78 6.375h.016A3.966 3.966 0 0 1 3 4a4 4 0 1 1 8 0c0 .893-.303 1.71-.797 2.375h.016L7 11 3.781 6.375zM7 2a2 2 0 1 0 0 4 2 2 0 0 0 0-4z" fill="#FFF" fill-rule="evenodd"/></svg>
