<?xml version="1.0" encoding="utf-8"?>
<!-- Generator: Adobe Illustrator 16.0.4, SVG Export Plug-In . SVG Version: 6.00 Build 0)  -->
<!DOCTYPE svg PUBLIC "-//W3C//DTD SVG 1.1//EN" "http://www.w3.org/Graphics/SVG/1.1/DTD/svg11.dtd">
<svg version="1.1" id="Layer_1" xmlns="http://www.w3.org/2000/svg" xmlns:xlink="http://www.w3.org/1999/xlink" x="0px" y="0px"
	 width="278px" height="278px" viewBox="0 0 278 278" enable-background="new 0 0 278 278" xml:space="preserve">
<linearGradient id="SVGID_1_" gradientUnits="userSpaceOnUse" x1="139.1255" y1="197.4922" x2="139.1255" y2="80.5083">
	<stop  offset="0" style="stop-color:#28E1A5"/>
	<stop  offset="1" style="stop-color:#C0DF16"/>
</linearGradient>
<path fill="url(#SVGID_1_)" d="M276.57,139c0,32.253-26.243,58.492-58.501,58.492c-16.467,0-26.262-5.333-40.752-16.54l-0.204-0.183
	l-76.202-78.106c-9.238-8.326-23.79-18.228-40.731-18.228c-30.091,0-54.572,24.478-54.572,54.564
	c0,30.087,24.481,54.563,54.572,54.563c14.33,0,26.56-5.393,38.491-16.972l30.881-31.22l2.792,2.763l-30.91,31.247
	c-12.739,12.365-25.838,18.11-41.254,18.11c-32.256,0-58.5-26.239-58.5-58.492c0-32.252,26.243-58.492,58.5-58.492
	c18.217,0,33.662,10.486,43.409,19.281l0.09,0.086l76.15,78.053c13.992,10.811,22.858,15.635,38.24,15.635
	c30.091,0,54.572-24.477,54.572-54.563c0-30.086-24.481-54.564-54.572-54.564c-14.203,0-27.454,5.886-40.511,17.992l-0.002-0.002
	l-29.878,30.204l-2.792-2.762l30.245-30.576l0.02,0.02c13.549-12.472,27.986-18.803,42.918-18.803
	C250.327,80.508,276.57,106.748,276.57,139z M243.873,136.381h-54.121v4.365h54.121V136.381z M62.31,166.06v-25.313h25.314v-4.365
	H62.31V111.94h-4.365v24.441H33.504v4.365h24.441v25.313H62.31z"/>
</svg>
